<svg xmlns="http://www.w3.org/2000/svg" viewBox="0 0 500 500"><path d="M459.24 137.52c-2.41-18.76-7.11-36.75-17-53.14C424 53.93 391 35.53 357.63 26.2c-28-7.82-58.16-10.08-86.09-2-30.66 8.87-56.39 29.29-84 45.3a437.69 437.69 0 01-63.1 29.66c-17.58 6.73-39.92 10.5-54.37 23.28a144.93 144.93 0 00-23.35 26.65C19.74 188.4 11 238.62 15.12 285.5c2.91 32.66 11.89 65.71 32 91.58 28.27 36.31 76.8 54.2 122.59 49.69 52-5.12 101.25-36.19 152.93-28.73 25.73 3.71 50.35 16.93 76.23 14.47 25.51-2.42 47.34-20 62.73-40.45 12.34-16.43 20.55-36.3 21.31-57 .83-22.39-9.31-42.81-14.4-64.19-8.85-37.37-4.42-75.6-9.27-113.35z" fill="#407bff"/><path d="M459.24 137.52c-2.41-18.76-7.11-36.75-17-53.14C424 53.93 391 35.53 357.63 26.2c-28-7.82-58.16-10.08-86.09-2-30.66 8.87-56.39 29.29-84 45.3a437.69 437.69 0 01-63.1 29.66c-17.58 6.73-39.92 10.5-54.37 23.28a144.93 144.93 0 00-23.35 26.65C19.74 188.4 11 238.62 15.12 285.5c2.91 32.66 11.89 65.71 32 91.58 28.27 36.31 76.8 54.2 122.59 49.69 52-5.12 101.25-36.19 152.93-28.73 25.73 3.71 50.35 16.93 76.23 14.47 25.51-2.42 47.34-20 62.73-40.45 12.34-16.43 20.55-36.3 21.31-57 .83-22.39-9.31-42.81-14.4-64.19-8.85-37.37-4.42-75.6-9.27-113.35z" fill="#fff" opacity=".7"/><path fill="none" stroke="#263238" stroke-linecap="round" stroke-linejoin="round" d="M480.87 315.24H334.93v-5.5h145.94zM474.1 464H341.7V315.4h132.4z"/><path fill="none" stroke="#263238" stroke-linecap="round" stroke-linejoin="round" d="M469.5 354.56H346.47v-32.24H469.5z"/><path fill="#263238" stroke="#263238" stroke-linecap="round" stroke-linejoin="round" d="M414.34 341.4h-12.3v-5.94h12.3z"/><path fill="none" stroke="#263238" stroke-linecap="round" stroke-linejoin="round" d="M469.5 395.29H346.47v-32.24H469.5z"/><path fill="#263238" stroke="#263238" stroke-linecap="round" stroke-linejoin="round" d="M414.34 382.14h-12.3v-5.94h12.3z"/><path fill="none" stroke="#263238" stroke-linecap="round" stroke-linejoin="round" d="M469.5 436.2H346.47v-32.24H469.5z"/><path fill="#263238" stroke="#263238" stroke-linecap="round" stroke-linejoin="round" d="M414.34 423.05h-12.3v-5.94h12.3z"/><path d="M414 244.73c1.49.65 5.14.57 5.14.57s-.78-2.39-.85-2.54c-.8-1.67-3.33-4.44-5.39-4.16a2.47 2.47 0 00-2 3.09 5.2 5.2 0 003.1 3.04zm36.87.8s.66-2.42.68-2.58c.26-1.84-.33-5.54-2.2-6.45A2.46 2.46 0 00446 238a5.18 5.18 0 00.89 4.24c.89 1.34 3.97 3.29 3.98 3.29z" fill="#263238"/><path d="M461.76 232.31c-2.07-.22-4.53 2.61-5.28 4.3-.07.15-.82 2.56-.78 2.56-.39.44-.81.92-1.25 1.46-.81 1-1.71 2.12-2.61 3.42a42.76 42.76 0 00-2.71 4.31 31.47 31.47 0 00-2.32 5.22v-2.38c-.24-1.84-1.78-5.26-3.83-5.64a2.46 2.46 0 00-2.83 2.32 5.16 5.16 0 002 3.85c1.17 1 4.4 2.05 4.66 2.13a45.53 45.53 0 00-1.37 5.64c-.19 1.12-.36 2.24-.51 3.37v-1.06c-.24-1.84-1.78-5.26-3.82-5.63a2.45 2.45 0 00-2.84 2.31 5.15 5.15 0 002 3.85 16.24 16.24 0 004.52 2.08c-.05.44-.11.87-.16 1.31-.25 2.08-.49 4.17-.79 6.2-.1.72-.23 1.42-.36 2.13v-.93c-.24-1.84-1.78-5.25-3.83-5.63a2.45 2.45 0 00-2.83 2.31 5.15 5.15 0 002 3.85 15.44 15.44 0 004.39 2c-.15.72-.3 1.44-.48 2.13-.14.46-.23.92-.39 1.38s-.3.92-.44 1.37c-.31.86-.63 1.75-1 2.58-.22.57-.44 1.12-.66 1.67.11-.71.3-2.11.3-2.23a9.57 9.57 0 00-1.28-4.65 2.55 2.55 0 00-3-2.63c-2 .54-3.28 4.06-3.38 5.92 0 .11.07 1.3.13 2.05-.11-.43-.2-.86-.31-1.31-.21-.89-.45-1.77-.7-2.71-.13-.46-.27-.92-.41-1.38s-.33-.93-.49-1.4c-.39-1.09-.85-2.17-1.33-3.25a16.24 16.24 0 004.63-1.74 5.13 5.13 0 002.26-3.69 2.46 2.46 0 00-2.66-2.52c-2.07.23-3.86 3.52-4.23 5.34 0 .11-.15 1.45-.2 2.18-.3-.65-.59-1.29-.91-1.94-.92-1.86-1.92-3.71-2.9-5.57-.3-.56-.59-1.13-.89-1.7.28-.07 3.57-.83 4.8-1.78a5.13 5.13 0 002.26-3.69 2.46 2.46 0 00-2.66-2.52c-2.06.23-3.86 3.52-4.23 5.34 0 .13-.2 2.05-.22 2.54-.65-1.25-1.29-2.5-1.87-3.77a42.82 42.82 0 01-2-5.24c.13 0 3.57-.81 4.83-1.78a5.13 5.13 0 002.26-3.69 2.46 2.46 0 00-2.66-2.52c-2.06.23-3.86 3.52-4.23 5.33 0 .12-.16 1.59-.21 2.29h-.11a30.93 30.93 0 01-1.06-5.55c-.12-1-.17-2-.2-3a16.54 16.54 0 004.88-1.22 5.15 5.15 0 002.65-3.43 2.46 2.46 0 00-2.37-2.79c-2.08 0-4.22 3.07-4.79 4.84 0 .09-.24 1.1-.38 1.84v-1.3c0-1.58.1-3 .2-4.29.06-.72.13-1.38.2-2a16.47 16.47 0 003.75-3.32 5.14 5.14 0 00.77-4.26 2.47 2.47 0 00-3.39-1.39c-1.84 1-2.33 4.67-2 6.5 0 .16.72 2.59.75 2.57-.08.59-.16 1.22-.24 1.91-.12 1.27-.25 2.71-.29 4.29a44.58 44.58 0 00.12 5.1 32.17 32.17 0 00.94 5.62v.07c-.33-.52-1.29-1.92-1.38-2-1.21-1.4-4.39-3.4-6.3-2.59a2.46 2.46 0 00-1.09 3.49 5.15 5.15 0 003.77 2.13c1.55.22 4.8-.72 5.06-.8a44.47 44.47 0 002 5.47c.45 1 .93 2.06 1.43 3.09l-.61-.87c-1.22-1.41-4.39-3.4-6.3-2.59a2.45 2.45 0 00-1.09 3.49 5.15 5.15 0 003.77 2.13 16.35 16.35 0 004.92-.76c.2.39.39.79.58 1.18 1 1.88 1.89 3.75 2.77 5.61.31.65.59 1.31.87 2-.26-.39-.49-.71-.53-.76-1.21-1.4-4.39-3.4-6.3-2.59a2.47 2.47 0 00-1.09 3.5 5.17 5.17 0 003.77 2.12 15.93 15.93 0 004.79-.72c.27.68.54 1.36.77 2 .14.46.32.9.44 1.37l.39 1.38c.21.89.43 1.8.62 2.68.13.6.25 1.18.37 1.76-.3-.65-.91-1.93-1-2-1-1.57-3.82-4-5.83-3.51a2.47 2.47 0 00-1.61 3.29 5.16 5.16 0 003.41 2.67 16.81 16.81 0 005.09 0c.2 1 .38 1.91.53 2.8.34 1.95.6 3.7.8 5.19h-8.19v17.22h21.54v-17.25h-8.33c.54-1.2 1.13-2.56 1.75-4.07.38-.93.77-1.93 1.16-2.95.39.08 3.59.73 5.08.39a5.12 5.12 0 003.59-2.4 2.45 2.45 0 00-1.35-3.4c-2-.67-5 1.57-6.08 3.07-.07.08-.67 1.12-1 1.78.16-.42.32-.83.47-1.26.32-.86.61-1.73.92-2.65.14-.46.27-.92.41-1.38s.25-1 .37-1.44c.27-1.13.49-2.28.68-3.45a15.86 15.86 0 004.82 1.11 5.1 5.1 0 003.92-1.83 2.46 2.46 0 00-.82-3.57c-1.85-.95-5.16.81-6.48 2.12-.08.08-.92 1.12-1.37 1.71.11-.71.22-1.41.31-2.12.26-2.06.45-4.16.66-6.24.06-.64.13-1.28.2-1.92.26.1 3.43 1.28 5 1.17 1.38-.1 3.12-.6 3.92-1.83a2.47 2.47 0 00-.83-3.57c-1.84-1-5.16.8-6.47 2.11-.1.1-1.31 1.61-1.59 2 .15-1.41.31-2.81.52-4.18a43.42 43.42 0 011.2-5.49c.12 0 3.42 1.29 5 1.18a5.14 5.14 0 003.92-1.83 2.46 2.46 0 00-.82-3.57c-1.85-.95-5.16.8-6.48 2.11-.09.09-1 1.24-1.43 1.79h-.1a31.55 31.55 0 012.18-5.22c.47-.92 1-1.78 1.48-2.6a16.72 16.72 0 004.75 1.67 5.17 5.17 0 004.1-1.4 2.46 2.46 0 00-.43-3.63c-1.74-1.15-5.22.23-6.67 1.39-.08.06-.81.79-1.34 1.33.24-.37.47-.76.71-1.1.86-1.31 1.74-2.46 2.53-3.47.45-.57.87-1.07 1.26-1.54a16.85 16.85 0 005-.71 5.12 5.12 0 003-3.12 2.45 2.45 0 00-2.3-3.07zm-22.89 55.53c-.74 1.72-1.46 3.25-2.08 4.55h-2.19c-.23-1.54-.54-3.37-1-5.42-.19-1-.42-2-.66-3.09a28.66 28.66 0 002.84-1.34 18 18 0 004.15 2.67c-.32.91-.69 1.79-1.06 2.63z" fill="#263238"/><g stroke="#263238" stroke-miterlimit="10"><path fill="none" stroke-width="2" d="M28.47 316.96l11.6 111.13m-1.87-21.27l-5.26-5.55"/><path d="M34.54 402.93a6 6 0 00-2.09-4.46c-1.35-1.2-8.46-4.19-9.13-1.69-.73 2.72 6.54 8.06 11.22 6.15z" fill="#407bff"/><path fill="none" stroke-width=".5" d="M34.54 402.93l-6.76-4.21"/><path fill="none" stroke-width="2" d="M39.52 419.46l-5.26-5.55"/><path d="M35.86 415.57a6 6 0 00-2.09-4.46c-1.35-1.2-8.46-4.19-9.13-1.69-.73 2.72 6.54 8.06 11.22 6.15z" fill="#407bff"/><path fill="none" stroke-width=".5" d="M35.86 415.57l-6.76-4.21"/><path fill="none" stroke-width="2" d="M34.98 375.98l-5.26-5.55"/><path d="M31.32 372.09a6 6 0 00-2.09-4.46c-1.35-1.21-8.46-4.19-9.13-1.69-.73 2.72 6.54 8.06 11.22 6.15z" fill="#407bff"/><path fill="none" stroke-width=".5" d="M31.32 372.09l-6.76-4.21"/><path fill="none" stroke-width="2" d="M36.3 388.62l-5.26-5.55"/><path d="M32.64 384.73a6 6 0 00-2.09-4.46c-1.35-1.21-8.46-4.19-9.13-1.69-.73 2.72 6.58 8.06 11.22 6.15z" fill="#407bff"/><path fill="none" stroke-width=".5" d="M32.64 384.73l-6.76-4.21"/><path fill="none" stroke-width="2" d="M32.84 355.45l-5.26-5.56"/><path d="M29.18 351.56a5.94 5.94 0 00-2.1-4.46c-1.35-1.21-8.45-4.19-9.12-1.69-.73 2.72 6.54 8.06 11.22 6.15z" fill="#407bff"/><path fill="none" stroke-width=".5" d="M29.18 351.56l-6.76-4.21"/><path fill="none" stroke-width="2" d="M30.69 334.83l-5.26-5.56"/><path d="M27 330.94a5.94 5.94 0 00-2.1-4.46c-1.35-1.21-8.45-4.2-9.12-1.69-.71 2.72 6.56 8.06 11.22 6.15z" fill="#407bff"/><path fill="none" stroke-width=".5" d="M27.03 330.94l-6.77-4.22"/><path fill="none" stroke-width="2" d="M37.32 399.34l3.99-6.52"/><path d="M40.09 394.78a6 6 0 011.13-4.78c1.07-1.46 7.4-5.85 8.58-3.54 1.28 2.54-4.73 9.23-9.71 8.32z" fill="#407bff"/><path fill="none" stroke-width=".5" d="M40.09 394.78l6.09-5.82"/><path fill="none" stroke-width="2" d="M33.84 366.08l4-6.52"/><path d="M36.62 361.52a6 6 0 011.13-4.79c1.07-1.46 7.4-5.85 8.58-3.54 1.28 2.51-4.73 9.24-9.71 8.33z" fill="#407bff"/><path fill="none" stroke-width=".5" d="M36.62 361.52l6.09-5.82"/><path fill="none" stroke-width="2" d="M32.32 351.47l4-6.52"/><path d="M35.1 346.91a6 6 0 011.12-4.8c1.08-1.46 7.41-5.85 8.58-3.54 1.28 2.51-4.73 9.24-9.7 8.34z" fill="#407bff"/><path fill="none" stroke-width=".5" d="M35.1 346.91l6.09-5.82"/><path fill="none" stroke-width="2" d="M30.08 330.04l4-6.52"/><path d="M32.86 325.48a6 6 0 011.13-4.8c1.07-1.46 7.4-5.85 8.58-3.54 1.28 2.51-4.73 9.24-9.71 8.34z" fill="#407bff"/><path fill="none" stroke-width=".5" d="M32.86 325.48l6.09-5.82"/><path d="M28.37 316.34a6 6 0 011.13-4.8c1.07-1.46 7.4-5.85 8.58-3.54 1.28 2.51-4.73 9.24-9.71 8.34z" fill="#407bff"/><path fill="none" stroke-width=".5" d="M28.37 316.34l6.09-5.82"/><path d="M28.73 316.59a6 6 0 01-4.66-1.59c-1.33-1.22-5-8-2.62-8.91 2.63-1.04 8.7 5.65 7.28 10.5z" fill="#407bff"/><path fill="none" stroke-width=".5" d="M28.73 316.59l-5.15-6.67"/><path fill="none" stroke-width="2" d="M59.06 332.26L47.53 443.4m2.55-21.2l-4-6.51"/><path d="M47.3 417.64a6 6 0 00-1.13-4.79c-1.08-1.46-7.41-5.84-8.59-3.54-1.27 2.52 4.74 9.24 9.72 8.33z" fill="#407bff"/><path fill="none" stroke-width=".5" d="M47.3 417.64l-5.75-5.51"/><path fill="none" stroke-width="2" d="M53.28 391.36l-4-6.52"/><path d="M50.5 386.8a6 6 0 00-1.13-4.8c-1.07-1.46-7.41-5.85-8.58-3.54-1.28 2.54 4.73 9.25 9.71 8.34z" fill="#407bff"/><path fill="none" stroke-width=".5" d="M50.5 386.8l-5.75-5.52"/><path fill="none" stroke-width="2" d="M51.97 404l-4-6.52"/><path d="M49.19 399.44a6 6 0 00-1.13-4.79c-1.08-1.46-7.41-5.85-8.59-3.54-1.27 2.51 4.74 9.24 9.72 8.33z" fill="#407bff"/><path fill="none" stroke-width=".5" d="M49.19 399.44l-5.75-5.52"/><path fill="none" stroke-width="2" d="M55.41 370.83l-4-6.52"/><path d="M52.63 366.27a6 6 0 00-1.13-4.8c-1.07-1.45-7.41-5.84-8.58-3.53-1.28 2.51 4.73 9.24 9.71 8.33z" fill="#407bff"/><path fill="none" stroke-width=".5" d="M52.63 366.27l-5.75-5.52"/><path fill="none" stroke-width="2" d="M57.55 350.21l-4-6.52"/><path d="M54.77 345.65a6 6 0 00-1.13-4.8c-1.07-1.46-7.41-5.84-8.58-3.53-1.28 2.51 4.73 9.23 9.71 8.33z" fill="#407bff"/><path fill="none" stroke-width=".5" d="M54.77 345.65l-5.75-5.52"/><path fill="none" stroke-width="2" d="M50.75 414.7l5.26-5.55"/><path d="M54.41 410.81a6 6 0 012.09-4.46c1.35-1.2 8.45-4.2 9.13-1.7.73 2.72-6.54 8.07-11.22 6.16z" fill="#407bff"/><path fill="none" stroke-width=".5" d="M54.41 410.81l7.16-4.44"/><path fill="none" stroke-width="2" d="M54.2 381.44l5.26-5.55"/><path d="M57.86 377.55a6 6 0 012.14-4.46c1.35-1.21 8.45-4.2 9.13-1.7.68 2.72-6.58 8.07-11.27 6.16z" fill="#407bff"/><path fill="none" stroke-width=".5" d="M57.86 377.55l7.16-4.44"/><path fill="none" stroke-width="2" d="M55.72 366.82l5.26-5.55"/><path d="M59.38 362.93a6 6 0 012.09-4.46c1.35-1.2 8.45-4.2 9.12-1.7.74 2.73-6.53 8.07-11.21 6.16z" fill="#407bff"/><path fill="none" stroke-width=".5" d="M59.38 362.93l7.16-4.44"/><path fill="none" stroke-width="2" d="M57.94 345.4l5.26-5.56"/><path d="M61.6 341.5a6 6 0 012.09-4.5c1.35-1.2 8.45-4.2 9.13-1.69.73 2.76-6.53 8.1-11.22 6.19z" fill="#407bff"/><path fill="none" stroke-width=".5" d="M61.6 341.5l7.16-4.44"/><path d="M59.09 331.64a6 6 0 012.09-4.46c1.35-1.21 8.45-4.2 9.13-1.7.69 2.72-6.53 8.07-11.22 6.16z" fill="#407bff"/><path fill="none" stroke-width=".5" d="M59.09 331.64l7.16-4.44"/><path d="M59.39 332a5.94 5.94 0 01-4.22-2.54c-1.06-1.47-3.29-8.84-.73-9.25 2.78-.5 7.34 7.29 4.95 11.79z" fill="#407bff"/><path fill="none" stroke-width=".5" d="M59.39 331.95l-3.67-7.58"/><path fill="none" stroke-width="2" d="M45.84 287v140.55m.12-21.13l-4.66-6.07"/><path d="M42.72 402.17a6 6 0 00-1.62-4.66c-1.22-1.33-8-5-8.9-2.62-1.01 2.62 5.66 8.69 10.52 7.28z" fill="#407bff"/><path fill="none" stroke-width=".5" d="M42.72 402.17l-6.29-4.89"/><path fill="none" stroke-width="2" d="M45.96 380l-4.66-6.06"/><path d="M42.72 375.76a6 6 0 00-1.62-4.66c-1.22-1.34-8-5.05-8.9-2.63-1.01 2.63 5.66 8.7 10.52 7.29z" fill="#407bff"/><path fill="none" stroke-width=".5" d="M42.72 375.76l-6.29-4.9"/><path fill="none" stroke-width="2" d="M45.96 349l-4.66-6.07"/><path d="M42.72 344.75a6 6 0 00-1.62-4.66c-1.22-1.34-8-5-8.9-2.63-1.01 2.63 5.66 8.7 10.52 7.29z" fill="#407bff"/><path fill="none" stroke-width=".5" d="M42.72 344.75l-6.29-4.9"/><path fill="none" stroke-width="2" d="M45.96 328.35l-4.66-6.07"/><path d="M42.72 324.1a6 6 0 00-1.62-4.65c-1.22-1.34-8-5.05-8.9-2.63-1.01 2.63 5.66 8.7 10.52 7.28z" fill="#407bff"/><path fill="none" stroke-width=".5" d="M42.72 324.1l-6.29-4.89"/><path fill="none" stroke-width="2" d="M45.96 307.62l-4.66-6.07"/><path d="M42.72 303.37a6 6 0 00-1.62-4.65c-1.22-1.34-8-5.05-8.9-2.63-1.01 2.63 5.66 8.7 10.52 7.28z" fill="#407bff"/><path fill="none" stroke-width=".5" d="M42.72 303.37l-6.29-4.89"/><path fill="none" stroke-width="2" d="M45.85 414.48l4.66-6.07"/><path d="M49.09 410.23a6 6 0 011.62-4.65c1.22-1.34 8-5.05 8.9-2.63 1.01 2.63-5.61 8.7-10.52 7.28z" fill="#407bff"/><path fill="none" stroke-width=".5" d="M49.09 410.23l6.66-5.15"/><path fill="none" stroke-width="2" d="M45.85 372.47l4.66-6.06"/><path d="M49.09 368.23a6 6 0 011.62-4.66c1.22-1.34 8-5 8.9-2.63 1.01 2.63-5.61 8.7-10.52 7.29z" fill="#407bff"/><path fill="none" stroke-width=".5" d="M49.09 368.23l6.66-5.16"/><path fill="none" stroke-width="2" d="M45.85 351.74l4.66-6.07"/><path d="M49.09 347.49a6 6 0 011.62-4.65c1.22-1.34 8-5 8.9-2.63 1.01 2.63-5.61 8.7-10.52 7.28z" fill="#407bff"/><path fill="none" stroke-width=".5" d="M49.09 347.49l6.66-5.15"/><path fill="none" stroke-width="2" d="M45.85 324.34l4.66-6.07"/><path d="M49.09 320.09a6 6 0 011.62-4.65c1.22-1.34 8-5.05 8.9-2.63 1.01 2.63-5.61 8.7-10.52 7.28z" fill="#407bff"/><path fill="none" stroke-width=".5" d="M49.09 320.09l6.66-5.16"/><path fill="none" stroke-width="2" d="M45.85 302.79l4.66-6.07"/><path d="M49.09 298.55a6 6 0 011.62-4.66c1.22-1.34 8-5.05 8.9-2.63 1.01 2.63-5.61 8.74-10.52 7.29z" fill="#407bff"/><path fill="none" stroke-width=".5" d="M49.09 298.55l6.66-5.16"/><path d="M45.58 289a5.93 5.93 0 011.61-4.65c1.22-1.34 8-5 8.91-2.63 1.01 2.62-5.67 8.69-10.52 7.28z" fill="#407bff"/><path fill="none" stroke-width=".5" d="M45.58 288.99l6.66-5.16"/><path d="M45.9 289.28a6 6 0 01-4.46-2.1c-1.2-1.35-4.18-8.46-1.68-9.13 2.72-.73 8.06 6.55 6.14 11.23z" fill="#407bff"/><path fill="none" stroke-width=".5" d="M45.9 289.28l-4.43-7.17"/><path fill="#263238" d="M51.63 464H36.74l-1.86-37.59h18.61L51.63 464z"/></g><g fill="none" stroke="#263238" stroke-miterlimit="10"><path d="M115.08 176.18H25.66V33.83h110.71v142.35h-15.48"/><path d="M29.68 38.99h102.68v132.03H29.68z"/><path d="M50.25 75.15a48.89 48.89 0 005.81 4.61c23.23 15.76 62.63 8.3 75.9 30.69M36.57 39.53a42.92 42.92 0 0010.78 32.69m-1.98 40.04c11.33-6 26-10.23 33.51 1.92 8.71 14.11-31.53 39-31.53 56.82m-17.41-48.52a98.4 98.4 0 0112.3-8.48m41.2-74.47s14.93 23.23 48.94 17M87.9 62.34A13 13 0 0188 64a13.67 13.67 0 11-1.58-6.4M122 82.46a6.43 6.43 0 11-6.42-6.46 6.42 6.42 0 016.42 6.46zm.09 43.37a26.28 26.28 0 019.91 5M97.46 171.1a26.54 26.54 0 0117.91-46.1h1.53"/></g><path d="M322 464h159m-465 0h298" fill="none" stroke="#263238" stroke-miterlimit="10"/><path fill="#fff" d="M193.7 42.5h201.83v373.89H193.7z"/><path fill="#dedede" d="M193.7 352.63h201.83v63.76H193.7z"/><path d="M401.59 116.06a2.49 2.49 0 002.49-2.49V88.64a2.49 2.49 0 00-2.49-2.49 2.42 2.42 0 00-.47 0V39.56a16.07 16.07 0 00-16.07-16.07H207.9a16.07 16.07 0 00-16.08 16.07v376.29a16.08 16.08 0 0016.08 16.08h177.15a16.08 16.08 0 0016.07-16.08V186.93a2.42 2.42 0 00.47 0 2.5 2.5 0 002.49-2.5v-24.88a2.49 2.49 0 00-2.49-2.49 2.42 2.42 0 00-.47.05v-5.64a2.42 2.42 0 00.47.05 2.5 2.5 0 002.49-2.49v-24.94a2.5 2.5 0 00-2.49-2.49 2.42 2.42 0 00-.47.05V116a2.42 2.42 0 00.47.06zm-9.78 291.63H201.13V51.22h190.68z" fill="#263238"/><path fill="none" stroke="#263238" stroke-linecap="round" stroke-linejoin="round" stroke-width=".821" d="M369.51 54.92h15.81v8.67h-15.81z"/><path fill="#263238" stroke="#263238" stroke-linecap="round" stroke-linejoin="round" stroke-width=".725" d="M369.51 54.92h12.33v8.67h-12.33zm15.78 2.43h2.23v3.82h-2.23z"/><path fill="#263238" stroke="#263238" stroke-linecap="round" stroke-linejoin="round" stroke-width=".883" d="M205.42 57.61h2.9v4.97h-2.9zm4.56-1.74h2.9v6.71h-2.9zm4.55-2.07h2.9v8.78h-2.9z"/><path fill="#407bff" d="M204.2 68.41h183.11v48.12H204.2z"/><path fill="none" stroke="#fff" stroke-miterlimit="10" d="M250.48 75.34v35.33m46.66-35.33v35.33m46.67-35.33v35.33"/><path d="M399.47 186.93a2.42 2.42 0 00.47 0 2.5 2.5 0 002.49-2.5v-8.93l-12.27 21.63v210.56H270.79L257 431.93h126.39a16.08 16.08 0 0016.08-16.08z" fill="#fff" opacity=".15"/><path d="M288.73 282.43V271h5.71v-5.75h-5.69v-5.74h11.45v-5.71h5.72v5.68h5.74V248h17.2v5.71h5.69V248h-5.71v-5.76h-11.47v-11.38h-17.21v5.72h-11.41v11.47h5.68v5.72h-5.71v5.73H283v-5.74h-17.19v-5.71H283v-45.88h5.75v17.18h5.73v-11.43h5.71v11.45h5.76v5.71h28.66v5.72h5.74v5.77h-5.71v5.75h5.69v11.48h5.75v11.46h-5.69v11.44H346v5.73h11.45v5.72h-17.12v11.45h-5.72v-5.72h-11.5v-5.73h-5.72v-5.72h11.41v-5.73h-28.59v5.7h-11.48zm34.38-17.2v-5.7h-5.69v5.69h5.71v5.71h11.42v-5.7zm-11.48 0H306v5.67h5.67zm11.51-28.73h5.67v-5.68h-5.67z" fill="#263238"/><path d="M237.14 219.33v-40.08h40.07v40.08zm5.75-34.33v28.61h28.6V185zm114.59 34.34h-40.07v-40.07h40.07zM351.76 185h-28.6v28.6h28.6zm-114.61 74.51h40.08v40.08h-40.08zm34.35 5.75h-28.61v28.61h28.61zm17.22-63.09V190.7H283v-11.44h28.61v11.42H306v5.74h5.67v11.44h-5.71v-5.69h-5.76v-5.72h-5.72v5.7h-5.77zm5.75-11.51h5.68V185h-5.68zm-28.69 40.16v5.73h11.45v5.72h-17.17v11.46h-22.9v-11.4h5.67V248h11.5v-17.18h11.46zm22.93 51.6v5.73h5.73v5.72h5.71v5.73H283v-17.17h5.69z" fill="#263238"/><path d="M254.33 230.82h-11.46v5.71h-5.71v-11.4h17.15v5.7zm103.15 11.45h-5.68v-11.43h-5.72v-5.72h11.4zm-91.69-11.43v-5.71h11.43v5.69h-11.44zm80.27 22.93v-5.71h5.69v5.69H346zm5.75 5.75h5.67v5.68h-5.67zm-45.89-40.15v-5.71h5.7v5.69h-5.71zM288.73 271H283v-5.72h5.69V271zm57.33 5.7V271h5.69v5.69h-5.69zm-5.75-40.13H346v5.72h-5.69v-5.75zm-28.69 57.3h-5.68v-5.67h5.68zm11.49.01v5.71h-5.69v-5.69h5.71zm34.37 5.73h-5.67v-5.68h5.67zM311.66 248H306v-5.69h5.7V248zm-45.91-40.13h-17.14v-17.14h17.14zm63.12-.01v-17.14H346v17.14zm-80.26 80.27V271h17.14v17.14z" fill="#263238"/><path fill="none" stroke="#407bff" stroke-miterlimit="10" stroke-width="2" d="M253.79 165.67h-25.1v27.69m116.38-27.69h25.09v27.69M253.79 311.49h-25.1V283.8m116.38 27.69h25.09V283.8"/><g stroke="#263238" stroke-miterlimit="10"><rect x="166.42" y="171.67" width="13.67" height="28.67" rx="2.67" fill="#263238"/><path fill="#fff" d="M167.62 174.2h11.25v23.6h-11.25zM57.66 312.17A21.6 21.6 0 0069 308.88c-.22 6.38-.39 11.21-.39 11.21s1.1 1.92 1.65 2.75 5.22 3.57 5.77 6.05 3 3.85 2.75 7.42-3.3-.28-2.75.55 2.2 3.57 2.2 6.05-5.22 2.47-7.15.82-8.24-5.5-8.79-9.07l-2.15-8z"/><path d="M69.08 332l1.34 6s4.33 3.33 4.66 5.67m.94-6.81L74.08 333m16.61 125.77s-1.57 12.87-.35 14.44a9.17 9.17 0 005.91 3.79c2.78.35 7.48-1.22 7.48-1.22a28.38 28.38 0 009.74.87c5-.52 8.34-2.43 8.69-4.87s-4-3.47-6.43-6.08-6.31-7.23-6.31-7.23l-1-3.38s-5.91 3-9.73 3.13a23.11 23.11 0 01-6.44-.52z" fill="#fff"/><path d="M122.16 471.81a1.86 1.86 0 00-.08-.85c-1.15.48-2.62 1.06-4.44 1.72-5.22 1.92-7.83.35-10.43.35s-2.79 2.78-10.09.87c-4.77-1.25-6.56-2.86-7.24-3.84a6.86 6.86 0 00.46 3.15 9.17 9.17 0 005.91 3.79c2.78.35 7.48-1.22 7.48-1.22a28.38 28.38 0 009.74.87c5.04-.49 8.34-2.4 8.69-4.84z" fill="#fff"/><path d="M81.42 299s-7 23.5-4.5 40 14.5 47.5 14.5 47.5-1.5 11.5-1.5 15.5-3.5 11.5-1 19.5 2.5 29 2.5 30.5-1 9.5-1 9.5 2 3 9.5 3 9.5-6 9.5-6 7.5-44.5 7.5-51.5 8-33 11-43.5a89.6 89.6 0 018.65-20.68c2-3.5.85-45.82.85-45.82l-57-5z" fill="#737373"/><path d="M120.77 462.08s7.48 2.95 11.13 4.69 6.08 1.91 6.08 4.7-6.6 5.56-10.6 6.26-10.44.52-11.13.69-13.74 2.09-15.3-1.22.17-14.6.17-14.6a50.57 50.57 0 0019.65-.52z" fill="#fff"/><path d="M116.25 478.42c.69-.17 7.13 0 11.13-.69s10.6-3.48 10.6-6.26a3.56 3.56 0 00-.16-1.08 48.36 48.36 0 01-5.23 2.64c-4.87 2.09-11.3 3.48-21 3.31a44.88 44.88 0 01-11.14-1.43 7.34 7.34 0 00.54 2.29c1.52 3.31 14.56 1.4 15.26 1.22z" fill="#fff"/><path d="M137.92 301s3 40.5-3 71-16 72-16.5 74 3.5 7.5 3.5 7.5v8s-3.5 3.5-11.5 4.5-10.5-1.5-10.5-1.5-2-13.5-2-23 2-42 2-42 4.5-33 4-38-2-20.5-2-20.5l-8-9.5" fill="#737373"/><path d="M53.87 293.38l15.73-2.76c-.07 2.13.38-11.33.38-12.33 0-2.2 5.22-16 5.22-16s4.12 17.88 4.12 20.08-1.65 19 .55 21.17 9.9 6.6 26.95 6.05 29.7-1.93 33-5.23-.55-13.47-.83-14.84 4.4-37.4 4.4-37.4 18.42 19.25 29.42 16.5 5.78-45.62 5.78-45.62l.55-12.37s3.57-9.07 3.57-10.45-3.57-11.27-3.57-11.27-2.2-1.93-3.58 2.75a45.12 45.12 0 00-1.65 7.7s-3.3 2.47-3 6.05a23.65 23.65 0 001.37 6.32L164.84 236s-8.25-9.35-8.8-11-.28-7.7-7.15-11.28-20.9-3.85-20.9-3.85l-38.77.28s-18.15 1.6-22.22 5.17-16.77 48.95-16.77 55.82c0 2.15 1.12 8.81 2.69 17.05z" fill="#fff"/><path d="M179.14 188.93s-.83 6.87-.28 8.25a15.36 15.36 0 01.55 7.42" fill="none"/><path d="M172.81 268.67c11-2.75 5.78-45.65 5.78-45.65l.12-2.77a9.94 9.94 0 00-8.54-1.69L164.84 236s-8.25-9.35-8.8-11-.28-7.7-7.15-11.28-20.9-3.85-20.9-3.85l-38.77.28s-18.15 1.6-22.22 5.17-16.77 48.95-16.77 55.82c0 4.08 4.06 24.42 7.48 41A21.6 21.6 0 0069 308.88c.4-11.89 1-29.16 1-30.59 0-2.2 5.22-16 5.22-16s4.12 17.88 4.12 20.08-1.65 19 .55 21.17 9.9 6.6 26.95 6.05 29.7-1.93 33-5.23-.55-13.47-.83-14.84 4.4-37.4 4.4-37.4 18.4 19.3 29.4 16.55z" fill="#407bff"/><path fill="none" d="M69.8 247.21l5.4 15.13-11.12-19.01m2.67-4.66l1.91 5.35m36.17 4.26c2.43 5.46 6 12.31 10.25 16.72m-13.66-25.33s.75 2.25 2.09 5.52m3.91 12.81s6 12 9 14.33m36.38-28.88l2.28-2.12m-6-1l-5.69 11.84 7.34-6.8m24.35 1.63c-.33-2.33-10.24-11.05-10.24-11.05s10.24 4.05 12.91 7.72"/><path d="M131.84 173.8s.55 6.88 1.38 8 1.37 9.62 0 12.1-2.2 5.5-3 6.32-3.85.83-5 .83-13.47-.55-13.47-.55l.28-17.33s3.04-12.94 19.81-9.37z" fill="#fff"/><path d="M109.85 154.56S98.57 158.13 96.1 168s5.5 21.17 5.5 21.17 2.2 8 4.12 9.63 9.62 0 12.1-.55 8-15.4 8-15.4 0 3.57 1.65 3.57 1.38-4.67 1.38-5.5 7.7-6.6 7.7-16.49S128 150.16 120 150.71s-10.15 3.85-10.15 3.85z" fill="#263238"/><path d="M133.22 209.27s-1.65-5.77-2.48-6.59-6.05-4.13-14.57-4.68-21.17-.27-22.27.28-1.38 5.22-1.38 5.22-3.57 3.3-4.4 5.23-1.65 2.74 6 9.07 11.83 8.8 19.8 6.87 19.52-13.47 19.52-13.47z" fill="#407bff"/><path d="M113.55 213.17a83.29 83.29 0 0015.54-7.17m-36.57-1.4s5 9.9 13.75 9.9a18.92 18.92 0 003.55-.38" fill="none"/></g></svg>